<?xml version="1.0" standalone="no"?>
<!DOCTYPE svg PUBLIC "-//W3C//DTD SVG 20010904//EN"
 "http://www.w3.org/TR/2001/REC-SVG-20010904/DTD/svg10.dtd">
<svg version="1.0" xmlns="http://www.w3.org/2000/svg"
 width="225.000000pt" height="225.000000pt" viewBox="0 0 225.000000 225.000000"
 preserveAspectRatio="xMidYMid meet">
<metadata>
Created by potrace 1.14, written by Peter Selinger 2001-2017
</metadata>
<g transform="translate(0.000000,225.000000) scale(0.100000,-0.100000)"
fill="#000000" stroke="none">
<path d="M562 1285 c-89 -110 -117 -173 -117 -262 0 -62 3 -75 25 -98 60 -66
155 -72 300 -21 52 18 293 118 535 221 242 102 464 196 493 207 29 12 51 23
49 25 -3 2 -168 -40 -368 -93 -200 -52 -431 -114 -514 -135 -82 -22 -175 -42
-205 -46 -138 -14 -205 86 -151 227 11 27 18 50 17 50 -1 0 -30 -34 -64 -75z"/>
</g>
</svg>
